<?xml version="1.0" encoding="UTF-8" standalone="no"?>
<svg 
  version="1.1" 
  xmlns="http://www.w3.org/2000/svg" 
  xmlns:xlink="http://www.w3.org/1999/xlink" 
  xmlns:svg="http://www.w3.org/2000/svg"
  xmlns:rdf="http://www.w3.org/1999/02/22-rdf-syntax-ns#"
  xmlns:cc="http://creativecommons.org/ns#"
  xmlns:dc="http://purl.org/dc/elements/1.1/"
  viewBox="0 0 768 768"
  width="768"
  height="768"
>
<style>svg {background-color: white; }</style>"
<metadata id="metadata1">
Created by https://svgstud.io and licensed under CC-BY-SA 4.0 license. Please attribute https://svgstud.io
</metadata>
<metadata id="prompt">
satellite orbiting earth sending large images to earth via radiations
</metadata>
<metadata id="version">
7
</metadata>
<metadata id="metadata2">
<rdf:RDF>
<cc:Work
    rdf:about="">
    <cc:license
    rdf:resource="http://creativecommons.org/licenses/by-sa/4.0/" />
    <dc:creator>
        <cc:Agent>
            <dc:title>https://svgstud.io</dc:title>
        </cc:Agent>
    </dc:creator>
</cc:Work>
<cc:License
    rdf:about="http://creativecommons.org/licenses/by-sa/4.0/">
    <cc:permits
    rdf:resource="http://creativecommons.org/ns#Reproduction" />
    <cc:permits
    rdf:resource="http://creativecommons.org/ns#Distribution" />
    <cc:requires
    rdf:resource="http://creativecommons.org/ns#Notice" />
    <cc:requires
    rdf:resource="http://creativecommons.org/ns#Attribution" />
    <cc:permits
    rdf:resource="http://creativecommons.org/ns#DerivativeWorks" />
    <cc:requires
    rdf:resource="http://creativecommons.org/ns#ShareAlike" />
</cc:License>
</rdf:RDF>
</metadata>
<metadata id="uid">
f1564d9ceb3b76fd7a3072ba3fff6dca2a40389c0c457dee9d5fa4fb2801ca0e
</metadata>
<path stroke="none" fill="black" fill-rule="evenodd" d="M497.00,764.69C350.84,764.84 313.69,764.63 310.43,763.60C308.19,762.89 303.46,760.37 299.93,757.99C296.39,755.61 290.88,751.62 287.69,749.13C284.49,746.64 279.84,741.89 277.35,738.58C274.86,735.27 273.31,732.40 273.91,732.20C274.51,732.00 277.84,732.55 281.31,733.42C284.79,734.29 290.07,734.99 293.06,734.97C296.67,734.95 298.00,734.64 297.00,734.06C296.17,733.58 283.12,728.37 268.00,722.49C252.87,716.61 233.75,708.65 225.50,704.80C217.25,700.95 203.58,693.90 195.13,689.15C186.67,684.39 178.12,679.01 176.13,677.19C172.50,673.87 172.50,673.87 179.22,674.39C182.91,674.68 186.18,674.51 186.49,674.01C186.80,673.52 182.47,669.64 176.87,665.40C171.27,661.16 161.47,653.33 155.09,648.01C148.72,642.68 135.17,630.04 124.98,619.91C114.80,609.78 102.62,596.77 97.93,591.00C93.23,585.23 86.67,576.90 83.36,572.50C80.04,568.10 72.48,557.30 66.55,548.50C60.63,539.70 55.23,531.92 54.56,531.21C53.59,530.18 53.08,530.74 51.99,534.04C50.89,537.35 50.86,539.07 51.83,542.83C52.49,545.40 56.81,555.04 61.42,564.25C66.04,573.46 69.61,581.00 69.36,581.00C69.11,581.00 67.69,580.37 66.20,579.59C64.72,578.82 60.09,574.66 55.92,570.34C51.74,566.03 45.79,559.05 42.69,554.84C39.59,550.63 33.94,542.05 30.13,535.78C26.32,529.52 19.62,517.21 15.25,508.44C10.87,499.67 5.99,489.35 4.39,485.50C1.50,478.50 1.50,478.50 1.22,398.61C1.06,354.66 1.35,311.69 1.86,303.11C2.65,290.03 3.31,285.88 5.96,277.50C7.69,272.00 11.19,262.32 13.73,256.00C16.26,249.68 18.99,243.82 19.79,243.00C21.07,241.68 21.17,242.30 20.58,248.00C20.21,251.57 19.65,257.65 19.33,261.50C18.94,266.18 19.08,268.17 19.75,267.50C20.30,266.95 21.91,263.54 23.34,259.92C24.76,256.30 28.16,248.39 30.89,242.34C33.62,236.29 38.35,226.76 41.41,221.17C44.46,215.58 50.53,205.27 54.89,198.25C59.25,191.24 66.82,180.10 71.72,173.50C76.61,166.90 83.44,158.12 86.90,154.00C90.35,149.88 98.18,141.16 104.29,134.62C110.40,128.09 120.83,117.74 127.47,111.62C134.11,105.50 145.93,95.36 153.73,89.07C161.54,82.79 168.15,77.06 168.42,76.34C168.78,75.41 167.47,75.59 163.77,77.00C160.94,78.07 158.46,78.79 158.26,78.60C158.07,78.40 159.84,76.57 162.20,74.53C164.57,72.49 170.78,68.01 176.00,64.59C181.22,61.17 189.10,56.32 193.50,53.82C197.90,51.32 206.56,46.46 212.75,43.01C218.94,39.56 224.00,36.52 224.00,36.24C224.00,35.97 221.73,36.04 218.96,36.41C216.19,36.78 211.35,37.90 208.21,38.91C205.07,39.92 198.08,42.37 192.67,44.36C187.27,46.34 183.02,47.44 183.23,46.80C183.45,46.15 187.33,43.50 191.85,40.91C196.38,38.32 206.25,33.64 213.79,30.52C221.33,27.39 235.60,22.13 245.50,18.81C255.40,15.50 264.40,12.33 265.50,11.78C266.60,11.22 269.57,8.76 272.11,6.31C275.02,3.49 278.15,1.52 280.61,0.95C282.85,0.43 368.92,0.04 483.85,0.02C683.21,-0.00 683.21,-0.00 689.85,3.50C693.51,5.42 701.23,10.51 707.00,14.81C712.77,19.11 720.39,25.30 723.92,28.56C727.45,31.83 734.28,39.08 739.09,44.67C743.90,50.27 750.05,58.14 752.75,62.17C755.46,66.20 759.57,72.77 761.88,76.76C765.35,82.73 766.26,85.39 766.98,91.76C767.47,96.04 767.78,200.73 767.68,326.00C767.50,552.50 767.50,552.50 763.20,560.42C760.84,564.77 757.50,570.17 755.78,572.42C754.06,574.66 750.84,578.41 748.62,580.75C746.40,583.09 744.05,585.00 743.41,585.00C742.76,585.00 740.75,581.62 738.93,577.50C737.12,573.38 735.35,570.00 734.99,570.00C734.63,570.00 733.39,572.14 732.23,574.75C731.08,577.36 729.85,581.98 729.51,585.00C729.16,588.02 728.41,592.39 727.84,594.69C727.26,597.00 725.23,600.71 723.32,602.94C721.40,605.18 716.61,608.88 712.67,611.16C708.73,613.44 704.00,616.26 702.18,617.41C700.34,618.56 695.70,624.10 691.81,629.78C686.84,637.04 682.66,641.79 677.63,645.91C673.71,649.12 669.64,652.71 668.59,653.88C667.54,655.05 666.90,656.24 667.18,656.51C667.46,656.79 670.90,656.41 674.83,655.66C678.76,654.92 682.19,654.53 682.45,654.79C682.71,655.05 682.66,657.34 682.34,659.88C682.01,662.42 680.45,666.98 678.86,670.00C677.28,673.02 673.49,678.29 670.45,681.70C667.41,685.12 662.69,689.35 659.96,691.12C657.23,692.89 655.00,694.69 655.00,695.12C655.00,695.56 656.59,696.21 658.53,696.57C660.47,696.94 665.23,696.76 669.12,696.19C673.30,695.56 679.22,693.69 683.65,691.59C688.71,689.19 693.03,686.13 697.05,682.11C701.14,678.02 704.20,673.67 706.87,668.14C709.11,663.51 711.05,657.76 711.45,654.56C711.83,651.50 712.53,649.00 712.99,649.00C713.46,649.00 714.52,651.14 715.36,653.75C716.19,656.36 717.41,661.20 718.06,664.50C718.75,667.97 718.99,673.52 718.64,677.66C718.31,681.59 717.12,687.27 716.00,690.26C714.88,693.26 712.64,697.69 711.03,700.11C709.42,702.52 703.80,709.62 698.55,715.87C693.30,722.12 689.00,727.65 689.00,728.15C689.00,728.65 689.69,729.33 690.53,729.65C691.38,729.98 694.19,729.67 696.78,728.98C699.38,728.29 705.30,725.97 709.95,723.83C714.59,721.69 721.79,717.41 725.95,714.32C730.10,711.23 737.95,704.23 743.39,698.77C750.69,691.44 753.51,689.19 754.14,690.17C754.61,690.90 754.72,692.85 754.38,694.50C754.03,696.15 752.62,699.75 751.24,702.50C749.85,705.25 746.90,710.18 744.68,713.46C742.46,716.74 737.01,723.23 732.57,727.87C728.13,732.51 721.20,738.95 717.17,742.16C713.15,745.38 705.05,750.85 699.17,754.32C693.30,757.79 686.48,761.50 684.00,762.57C679.61,764.45 674.99,764.50 497.00,764.69zM398.00,721.81C401.02,721.90 411.15,721.54 420.50,721.00C429.85,720.47 441.77,719.54 447.00,718.94C452.23,718.33 461.90,716.76 468.50,715.45C475.10,714.14 486.19,711.50 493.14,709.59C500.09,707.68 510.22,704.46 515.64,702.43C521.06,700.41 530.35,696.57 536.28,693.91C542.21,691.24 550.31,687.18 554.28,684.89C558.25,682.60 566.90,676.87 573.50,672.16C580.10,667.45 590.00,660.21 595.50,656.08C601.00,651.94 609.77,645.01 615.00,640.67C620.23,636.32 627.88,629.51 632.00,625.52C636.12,621.53 642.75,614.83 646.73,610.65C650.71,606.46 658.36,597.51 663.74,590.77C669.12,584.02 677.55,572.42 682.47,565.00C687.40,557.58 695.29,543.85 700.01,534.50C704.74,525.15 710.48,512.77 712.78,507.00C715.09,501.23 718.28,492.21 719.88,486.96C721.48,481.72 723.94,472.72 725.34,466.96C726.75,461.21 728.82,449.89 729.94,441.81C731.06,433.74 732.44,418.73 733.00,408.47C733.68,395.98 733.69,384.15 733.02,372.66C732.48,363.22 731.56,351.68 730.98,347.00C730.40,342.32 728.80,331.78 727.43,323.56C726.06,315.34 723.53,303.19 721.82,296.56C719.69,288.31 718.77,282.56 718.91,278.36C719.06,273.98 718.39,270.02 716.57,264.60C715.16,260.42 711.32,251.63 708.04,245.07C704.75,238.52 701.60,232.87 701.03,232.52C700.46,232.17 700.00,232.50 700.00,233.24C700.00,233.99 701.52,239.08 703.38,244.55C705.23,250.02 709.07,260.31 711.89,267.40C714.72,274.50 716.86,280.47 716.65,280.68C716.44,280.89 715.50,279.88 714.56,278.44C713.61,277.00 712.63,276.03 712.38,276.29C712.13,276.54 713.73,284.56 715.93,294.12C718.14,303.68 721.04,317.80 722.38,325.50C723.72,333.20 725.37,344.83 726.03,351.35C726.81,358.92 727.06,371.54 726.73,386.35C726.44,399.08 725.47,415.12 724.57,422.00C723.67,428.88 721.62,441.05 720.01,449.05C718.40,457.05 715.46,468.97 713.47,475.55C711.47,482.12 708.26,491.77 706.32,497.00C704.37,502.23 699.95,512.35 696.49,519.50C693.03,526.65 687.60,536.77 684.43,542.00C681.26,547.23 674.63,557.35 669.69,564.50C664.75,571.65 657.54,581.33 653.67,586.00C649.80,590.67 641.21,600.06 634.57,606.86C627.93,613.66 617.33,623.59 611.00,628.94C604.67,634.28 596.63,640.77 593.12,643.34C589.61,645.92 581.86,650.97 575.89,654.57C569.91,658.17 557.71,664.65 548.76,668.97C539.82,673.29 527.33,678.85 521.00,681.33C514.67,683.80 503.91,687.45 497.07,689.44C490.23,691.43 479.90,694.01 474.11,695.17C464.27,697.15 463.39,697.18 460.74,695.67C459.18,694.77 454.10,691.02 449.45,687.32C444.80,683.62 441.00,680.07 441.00,679.42C441.00,678.75 445.20,677.30 450.75,676.04C456.11,674.83 465.23,672.50 471.00,670.86C476.77,669.22 487.35,665.59 494.50,662.79C501.65,659.99 512.73,655.10 519.12,651.91C525.51,648.72 534.95,643.56 540.09,640.45C545.23,637.33 552.15,632.95 555.47,630.71C558.79,628.48 566.45,622.79 572.50,618.08C578.55,613.36 589.53,603.65 596.90,596.50C604.27,589.35 614.62,578.32 619.90,572.00C625.18,565.67 631.30,558.04 633.50,555.03C635.70,552.02 641.02,544.14 645.33,537.53C649.63,530.91 657.15,517.40 662.03,507.50C667.48,496.44 672.83,483.71 675.89,474.50C678.63,466.25 682.25,453.27 683.94,445.65C685.63,438.03 687.76,426.45 688.68,419.91C689.59,413.36 690.05,407.71 689.68,407.35C689.31,406.98 685.83,407.93 681.93,409.46C677.23,411.30 674.57,412.95 674.01,414.37C673.55,415.54 672.62,420.55 671.95,425.50C671.27,430.45 669.50,439.45 668.00,445.50C666.50,451.55 662.97,462.35 660.15,469.50C657.33,476.65 652.77,486.32 650.02,491.00C647.27,495.68 644.15,500.62 643.08,501.99C642.01,503.35 640.83,504.17 640.46,503.80C640.10,503.43 641.17,498.94 642.86,493.81C644.54,488.69 647.70,477.30 649.88,468.50C652.06,459.70 654.52,448.68 655.34,444.00C656.17,439.32 657.38,431.54 658.03,426.69C658.69,421.85 658.94,417.61 658.60,417.27C658.26,416.93 655.24,417.16 651.90,417.78C648.55,418.40 645.25,419.38 644.57,419.94C643.88,420.51 642.74,424.92 642.03,429.74C641.32,434.56 639.69,442.83 638.42,448.11C637.14,453.40 633.79,463.65 630.97,470.88C628.15,478.11 624.72,485.37 623.34,487.01C621.40,489.31 619.98,490.01 617.16,490.02C615.15,490.04 611.53,490.50 609.12,491.06C606.71,491.61 604.47,491.80 604.14,491.47C603.81,491.14 604.40,489.44 605.45,487.69C606.50,485.93 609.30,480.70 611.68,476.04C614.06,471.39 616.00,466.56 616.00,465.29C616.00,464.03 615.64,463.00 615.20,463.00C614.76,463.00 613.87,463.53 613.22,464.18C612.57,464.83 611.83,465.17 611.59,464.92C611.34,464.67 611.95,461.54 612.95,457.95C613.94,454.37 615.08,449.09 615.47,446.22C616.04,442.08 615.90,441.00 614.80,441.00C614.03,441.00 611.63,442.84 609.45,445.08C607.28,447.33 603.92,450.01 602.00,451.05C600.08,452.08 597.96,453.29 597.30,453.74C596.64,454.19 594.74,461.52 593.07,470.03C590.79,481.67 589.13,487.33 586.40,492.88C584.40,496.93 581.19,502.00 579.27,504.13C577.34,506.26 575.37,508.00 574.88,508.00C574.40,508.00 574.00,507.16 574.00,506.13C574.00,505.09 574.61,502.51 575.35,500.38C576.09,498.24 577.00,495.26 577.37,493.75C577.96,491.33 577.75,491.00 575.64,491.00C574.33,491.00 571.34,491.68 569.00,492.50C566.66,493.33 564.30,494.00 563.76,494.00C563.22,494.00 563.00,492.76 563.28,491.25C563.56,489.74 564.95,485.76 566.37,482.40C568.50,477.37 568.99,474.53 569.16,466.17C569.28,460.60 569.07,455.74 568.71,455.38C568.35,455.01 567.32,455.32 566.44,456.05C565.56,456.78 563.45,459.44 561.77,461.94C560.09,464.45 557.34,467.96 555.66,469.75C553.69,471.85 551.66,473.00 549.93,473.00C547.73,473.00 547.14,473.56 546.62,476.12C546.28,477.84 546.00,481.11 545.99,483.38C545.99,485.64 545.32,491.94 544.50,497.37C543.68,502.80 542.55,508.98 541.97,511.10C541.40,513.23 540.12,515.40 539.13,515.93C538.14,516.46 532.87,517.59 527.42,518.44C521.96,519.28 516.04,520.23 514.25,520.53C511.85,520.94 511.00,520.72 511.00,519.68C511.00,518.90 513.68,514.80 516.96,510.56C520.23,506.32 523.20,501.95 523.55,500.85C523.90,499.75 524.02,498.68 523.82,498.48C523.62,498.28 521.49,498.99 519.10,500.07C516.71,501.14 509.28,505.99 502.59,510.86C495.89,515.72 489.52,520.18 488.43,520.77C487.34,521.35 482.94,522.32 478.65,522.92C474.36,523.51 470.66,524.00 470.43,524.00C470.19,524.00 470.00,523.61 470.00,523.14C470.00,522.67 474.61,518.51 480.25,513.91C485.89,509.30 494.42,501.56 499.21,496.71C504.00,491.86 510.80,484.20 514.32,479.69C517.84,475.19 522.75,468.35 525.24,464.50C527.73,460.65 532.08,453.16 534.92,447.85C540.07,438.20 540.07,438.20 547.29,436.47C551.25,435.51 555.90,434.17 557.62,433.47C560.03,432.50 561.11,431.13 562.37,427.43C563.27,424.80 564.00,421.77 564.00,420.71C564.00,419.10 563.46,418.86 560.75,419.26C558.96,419.52 551.88,420.70 545.00,421.88C538.12,423.06 529.44,424.51 525.70,425.11C521.95,425.71 518.45,426.72 517.90,427.35C517.35,427.98 514.34,433.13 511.20,438.78C508.07,444.44 502.57,453.20 499.00,458.25C495.43,463.30 487.10,472.89 480.50,479.56C473.90,486.23 464.45,494.70 459.50,498.37C454.55,502.05 445.32,507.68 439.00,510.90C432.68,514.11 424.79,517.67 421.47,518.79C418.15,519.92 411.73,521.79 407.19,522.95C402.65,524.11 394.34,525.71 388.72,526.51C383.10,527.31 372.40,527.97 364.94,527.98C357.48,527.99 346.35,527.34 340.21,526.53C334.08,525.72 325.41,524.13 320.95,522.99C316.49,521.85 309.39,519.55 305.17,517.89C300.95,516.22 293.77,512.88 289.21,510.47C284.65,508.05 277.00,503.28 272.21,499.85C267.42,496.43 258.60,488.88 252.62,483.07C246.63,477.25 238.22,468.13 233.93,462.78C229.64,457.43 222.86,447.60 218.87,440.92C214.88,434.24 210.69,428.40 209.56,427.94C208.42,427.48 198.72,426.37 188.00,425.47C177.28,424.57 163.10,422.96 156.50,421.89C149.90,420.82 141.21,419.06 137.19,417.96C133.17,416.87 127.72,414.88 125.08,413.54C122.44,412.20 118.81,409.87 117.00,408.35C115.19,406.83 112.89,403.76 111.88,401.54C110.87,399.32 110.04,396.38 110.03,395.00C110.03,393.62 111.07,390.25 112.35,387.50C113.64,384.75 116.54,380.83 118.80,378.79C121.06,376.75 124.71,374.17 126.92,373.04C129.12,371.92 131.61,371.00 132.46,371.00C133.31,371.00 134.00,371.59 134.00,372.32C134.00,373.05 132.43,375.47 130.52,377.71C128.60,379.95 126.56,383.02 125.99,384.53C125.25,386.47 125.26,388.26 126.03,390.58C126.62,392.39 128.77,395.37 130.81,397.20C132.84,399.03 136.11,401.53 138.07,402.74C140.04,403.95 145.68,406.26 150.62,407.88C155.56,409.49 165.20,411.74 172.05,412.87C178.90,414.00 191.47,415.43 200.00,416.05C208.53,416.67 216.51,417.37 217.74,417.61C219.15,417.88 220.76,419.59 222.10,422.27C223.28,424.59 226.51,430.32 229.29,435.00C232.07,439.68 237.37,447.55 241.07,452.50C244.76,457.45 252.90,466.47 259.14,472.55C265.39,478.62 274.62,486.33 279.65,489.69C284.69,493.04 291.31,496.72 294.36,497.86C297.42,499.01 301.17,500.25 302.71,500.62C305.50,501.30 305.50,501.30 303.57,499.12C302.50,497.92 300.12,496.00 298.26,494.85C296.41,493.71 295.10,492.56 295.36,492.31C295.62,492.05 300.70,492.80 306.66,493.97C312.62,495.14 318.69,496.57 320.15,497.13C321.62,497.70 325.80,501.49 329.45,505.56C334.51,511.19 337.10,513.25 340.30,514.20C343.10,515.04 351.82,515.46 366.50,515.48C384.10,515.50 390.19,515.13 396.98,513.67C401.64,512.67 409.74,510.49 414.98,508.83C420.21,507.17 429.45,503.25 435.51,500.13C441.56,497.01 449.83,492.23 453.89,489.50C457.95,486.78 465.14,481.12 469.88,476.93C474.62,472.74 481.23,465.98 484.57,461.90C487.91,457.83 492.04,452.44 493.75,449.92C495.46,447.40 499.31,440.43 502.31,434.42C505.30,428.41 508.06,422.50 508.44,421.27C508.89,419.78 510.35,418.73 512.81,418.09C514.84,417.57 526.40,415.74 538.50,414.03C550.60,412.33 569.37,409.14 580.22,406.95C591.07,404.76 605.69,401.21 612.73,399.05C619.76,396.89 629.33,393.51 634.00,391.54C638.68,389.56 644.65,386.37 647.29,384.44C649.92,382.51 652.96,379.48 654.03,377.71C655.11,375.95 655.99,372.79 656.00,370.70C656.00,368.61 655.27,365.46 654.38,363.70C653.49,361.94 651.81,359.42 650.63,358.11C648.50,355.72 648.50,355.72 651.50,356.43C653.15,356.82 656.43,358.26 658.79,359.63C661.15,361.01 664.64,363.50 666.54,365.17C668.44,366.84 670.37,369.62 670.82,371.35C671.28,373.08 671.32,375.99 670.92,377.82C670.51,379.64 668.90,382.91 667.34,385.10C665.78,387.28 663.94,390.06 663.26,391.28C662.59,392.50 662.02,395.43 662.01,397.80C662.00,402.08 662.00,402.09 665.25,401.57C667.04,401.28 673.23,400.33 679.00,399.47C684.77,398.60 689.95,397.44 690.50,396.89C691.12,396.27 691.48,385.74 691.45,369.20C691.41,349.29 690.95,339.51 689.66,330.74C688.71,324.27 686.81,313.92 685.44,307.74C684.07,301.56 680.62,289.53 677.75,281.00C674.79,272.15 669.23,258.78 664.82,249.85C660.56,241.25 653.48,228.82 649.07,222.23C644.67,215.64 637.65,206.04 633.48,200.88C629.31,195.72 620.85,186.38 614.70,180.11C608.54,173.85 598.65,164.55 592.71,159.44C586.78,154.34 578.00,147.48 573.21,144.20C568.42,140.92 559.13,135.00 552.56,131.04C546.00,127.07 535.84,121.43 529.98,118.49C524.12,115.55 514.64,111.15 508.91,108.71C503.19,106.26 492.20,102.20 484.50,99.67C476.80,97.14 466.00,93.96 460.50,92.60C455.00,91.24 446.68,89.43 442.00,88.57C437.32,87.72 430.12,86.55 426.00,85.97C421.88,85.40 411.30,84.54 402.50,84.06C393.68,83.59 379.72,83.58 371.39,84.04C363.08,84.50 350.48,85.82 343.39,86.97C336.30,88.12 324.04,90.64 316.13,92.58C308.23,94.53 296.98,97.83 291.13,99.93C285.29,102.04 274.65,106.31 267.50,109.43C260.35,112.55 248.43,118.47 241.00,122.59C233.57,126.71 222.24,133.77 215.81,138.29C209.38,142.80 198.87,151.00 192.46,156.50C186.05,162.00 176.43,171.22 171.08,177.00C165.73,182.78 158.09,191.70 154.10,196.83C150.11,201.97 144.48,209.84 141.58,214.33C138.68,218.83 134.46,225.78 132.18,229.80C129.91,233.81 125.61,242.61 122.62,249.35C119.64,256.09 115.81,265.77 114.10,270.86C112.40,275.94 109.69,285.37 108.09,291.80C106.49,298.24 104.46,308.00 103.59,313.50C102.71,319.00 101.55,328.45 101.00,334.50C100.45,340.55 100.00,348.54 100.00,352.25C100.00,355.96 100.39,359.00 100.88,359.00C101.36,359.00 104.39,357.86 107.63,356.47C110.86,355.07 114.47,353.44 115.67,352.84C117.41,351.97 117.95,350.55 118.45,345.63C118.80,342.26 119.55,335.45 120.12,330.50C120.70,325.55 122.27,316.33 123.62,310.00C124.97,303.68 126.97,295.58 128.07,292.00C129.17,288.43 131.66,281.23 133.61,276.00C135.55,270.77 140.44,260.11 144.46,252.31C148.49,244.50 155.18,233.03 159.33,226.81C163.48,220.59 170.29,211.22 174.47,206.00C178.64,200.78 185.43,192.81 189.55,188.30C193.67,183.79 200.97,176.77 205.77,172.71C210.57,168.65 218.15,162.63 222.61,159.33C227.06,156.04 235.61,150.26 241.61,146.49C247.60,142.72 257.68,137.06 264.00,133.91C270.32,130.76 279.88,126.37 285.23,124.15C290.58,121.93 300.00,118.48 306.15,116.49C312.31,114.50 321.88,111.81 327.42,110.51C332.96,109.21 343.80,107.16 351.50,105.95C362.52,104.23 370.07,103.75 387.00,103.70C402.33,103.65 412.06,104.13 420.89,105.36C427.70,106.32 437.58,107.99 442.85,109.07C448.11,110.15 456.94,112.35 462.46,113.95C467.98,115.55 477.45,118.77 483.50,121.11C489.55,123.45 500.80,128.56 508.50,132.47C516.20,136.38 527.00,142.56 532.50,146.20C538.00,149.85 545.57,155.38 549.33,158.50C553.09,161.62 555.98,164.35 555.77,164.56C555.56,164.78 553.04,164.06 550.18,162.98C547.32,161.89 544.08,161.00 542.99,161.00C541.90,161.00 541.00,161.55 541.00,162.23C541.00,162.91 544.94,167.46 549.75,172.34C556.05,178.74 558.08,181.38 557.00,181.78C556.17,182.08 552.16,184.05 548.07,186.16C543.99,188.27 540.50,190.00 540.32,190.00C540.15,190.00 540.00,189.35 540.00,188.57C540.00,187.78 535.56,183.78 530.13,179.70C524.70,175.61 515.81,169.76 510.38,166.69C504.95,163.63 496.90,159.59 492.50,157.72C488.10,155.84 482.70,153.66 480.50,152.86C476.98,151.59 475.96,150.41 471.92,142.96C469.41,138.31 466.73,134.50 465.97,134.50C465.21,134.50 464.28,135.62 463.89,137.00C463.51,138.38 463.15,141.55 463.10,144.05C463.04,146.55 462.46,149.14 461.80,149.80C461.10,150.50 457.68,151.01 453.55,151.01C449.67,151.02 445.49,151.30 444.25,151.63C443.01,151.96 442.00,152.59 442.00,153.03C442.00,153.47 446.39,155.28 451.75,157.04C457.11,158.80 462.01,160.75 462.64,161.37C463.27,161.99 464.49,164.97 465.35,168.00C466.21,171.03 467.60,174.40 468.44,175.50C469.76,177.23 470.10,177.30 470.99,176.00C471.56,175.18 472.53,172.55 473.15,170.16C473.77,167.78 474.82,165.62 475.49,165.37C476.15,165.11 479.80,166.07 483.60,167.50C487.39,168.93 494.59,172.28 499.58,174.94C504.57,177.61 513.99,183.21 520.50,187.40C527.01,191.58 533.17,195.00 534.17,195.00C535.18,195.00 536.00,195.47 536.00,196.04C536.00,196.61 534.99,198.97 533.75,201.29C531.88,204.81 531.51,207.06 531.51,215.00C531.51,223.36 531.83,225.10 534.17,229.50C535.63,232.25 538.45,236.39 540.44,238.69C542.42,240.99 546.40,244.03 549.28,245.43C552.15,246.83 556.55,248.26 559.06,248.60C561.57,248.94 566.07,248.70 569.06,248.06C572.05,247.43 576.29,245.68 578.48,244.17C580.67,242.66 584.80,238.53 587.66,234.99C590.52,231.45 593.23,228.43 593.68,228.29C594.13,228.15 596.68,231.07 599.35,234.77C602.01,238.47 607.74,248.70 612.07,257.50C616.96,267.43 621.29,278.01 623.49,285.37C625.44,291.89 628.15,302.76 629.52,309.51C630.89,316.26 632.30,326.55 632.65,332.39C633.01,338.23 633.02,343.00 632.66,343.00C632.31,343.00 627.86,341.67 622.76,340.04C617.67,338.41 608.10,335.74 601.50,334.12C594.90,332.49 583.65,330.01 576.50,328.61C569.35,327.22 559.68,325.57 555.01,324.96C550.34,324.34 546.21,323.34 545.84,322.74C545.46,322.13 544.61,318.68 543.95,315.07C543.28,311.46 541.68,304.83 540.40,300.34C539.11,295.85 536.09,287.75 533.68,282.34C531.27,276.93 527.22,268.99 524.67,264.71C522.13,260.42 517.60,253.67 514.62,249.71C511.64,245.74 504.54,237.58 498.85,231.57C493.16,225.57 484.68,217.30 480.00,213.22C475.33,209.13 467.23,202.94 462.00,199.47C456.78,196.00 446.76,190.22 439.75,186.63C432.73,183.04 422.15,178.54 416.25,176.64C410.34,174.73 402.57,172.62 399.00,171.94C395.43,171.27 391.94,170.27 391.25,169.73C390.37,169.05 390.00,165.18 390.00,156.81C390.00,149.81 389.53,143.96 388.86,142.68C388.23,141.48 385.94,138.74 383.77,136.59C381.60,134.44 379.42,131.60 378.92,130.28C378.42,128.97 377.54,123.80 376.98,118.81C376.41,113.81 375.71,109.34 375.42,108.86C375.12,108.39 374.25,108.00 373.47,108.00C372.70,108.00 370.55,111.26 368.70,115.25C366.85,119.24 362.45,126.02 358.92,130.32C355.39,134.62 351.74,139.34 350.80,140.82C349.71,142.55 348.70,147.59 347.97,155.00C347.35,161.33 346.51,166.84 346.11,167.26C345.71,167.68 339.12,169.60 331.48,171.52C323.84,173.45 312.51,177.22 306.32,179.91C300.12,182.60 291.10,187.16 286.27,190.05C281.45,192.94 273.23,198.46 268.00,202.32C262.77,206.19 253.54,214.33 247.49,220.42C241.43,226.52 232.99,236.13 228.75,241.79C224.50,247.44 218.51,256.34 215.44,261.56C212.37,266.77 207.90,275.72 205.51,281.43C203.11,287.14 199.80,296.53 198.15,302.29C196.50,308.05 194.41,316.76 193.50,321.63C192.60,326.51 191.68,331.41 191.47,332.52C191.13,334.26 188.36,335.23 172.27,339.27C161.93,341.87 153.15,344.00 152.76,344.00C152.37,344.00 152.46,342.93 152.95,341.63C153.45,340.32 154.80,333.91 155.95,327.38C157.11,320.85 159.17,311.11 160.54,305.75C161.91,300.39 165.07,290.71 167.57,284.25C170.06,277.79 174.36,268.27 177.11,263.11C179.87,257.95 185.48,248.72 189.57,242.61C193.67,236.50 198.36,229.95 199.99,228.06C202.96,224.62 202.96,224.62 205.40,226.90C207.71,229.08 207.88,229.10 208.80,227.34C209.33,226.33 210.07,224.09 210.44,222.36C211.08,219.35 211.36,219.19 217.36,218.55C220.79,218.18 224.67,217.35 225.97,216.69C227.28,216.04 228.49,215.05 228.67,214.50C228.85,213.95 226.48,212.18 223.40,210.58C220.32,208.97 217.58,207.07 217.30,206.35C217.03,205.63 218.50,202.02 220.57,198.31C223.89,192.38 224.43,190.43 225.15,181.85C225.61,176.49 225.60,171.10 225.15,169.87C224.40,167.84 223.27,168.89 213.16,181.06C207.03,188.45 202.01,195.04 202.00,195.71C202.00,196.61 200.96,196.54 197.87,195.46C195.61,194.66 192.91,194.00 191.87,194.00C190.84,194.00 190.00,194.69 190.00,195.54C190.00,196.39 190.91,198.87 192.03,201.06C193.65,204.23 193.79,205.14 192.71,205.56C191.97,205.84 189.37,205.95 186.93,205.79C183.07,205.54 182.50,205.76 182.50,207.50C182.50,208.89 184.11,210.36 187.79,212.34C193.08,215.17 193.08,215.17 191.29,218.05C190.31,219.64 186.50,225.79 182.83,231.72C179.15,237.65 172.77,249.40 168.64,257.84C164.34,266.62 159.01,279.66 156.16,288.34C153.43,296.68 150.26,308.23 149.12,314.00C147.98,319.77 146.59,328.29 146.03,332.93C145.20,339.84 145.27,341.76 146.44,343.55C147.74,345.53 147.67,345.83 145.69,346.84C144.48,347.46 139.22,349.49 134.00,351.38C128.78,353.26 120.82,356.39 116.32,358.33C111.82,360.28 103.96,363.96 98.86,366.52C93.76,369.07 86.28,373.45 82.23,376.25C78.18,379.05 73.04,383.40 70.80,385.92C68.56,388.44 65.84,392.46 64.76,394.86C63.28,398.17 62.97,400.32 63.48,403.72C63.98,407.05 65.22,409.37 68.27,412.68C71.07,415.72 75.28,418.54 81.44,421.51C86.42,423.91 94.78,427.01 100.00,428.41C105.22,429.80 116.25,432.28 124.50,433.92C132.75,435.56 147.15,437.82 156.50,438.96C165.85,440.09 175.69,441.29 178.36,441.62C181.12,441.96 184.03,443.03 185.11,444.11C186.41,445.41 187.00,447.42 187.00,450.57C187.00,453.08 186.53,456.00 185.96,457.07C185.08,458.72 183.82,459.00 177.21,459.01C172.97,459.01 164.89,458.48 159.26,457.83C153.63,457.18 148.72,456.95 148.34,457.32C147.97,457.70 148.27,459.13 149.00,460.50C149.74,461.88 153.02,466.17 156.30,470.03C159.58,473.90 162.06,477.27 161.82,477.52C161.57,477.77 156.05,477.57 149.56,477.09C140.40,476.40 137.16,475.77 135.13,474.26C133.68,473.19 130.17,467.88 127.33,462.45C124.48,457.02 121.41,452.04 120.50,451.38C119.59,450.71 115.39,449.41 111.17,448.49C106.95,447.56 101.53,445.95 99.12,444.90C96.72,443.86 94.35,443.00 93.87,443.00C93.39,443.00 93.00,443.74 93.00,444.65C93.00,445.56 94.54,449.06 96.41,452.41C98.29,455.77 103.02,462.99 106.91,468.45C110.81,473.91 114.00,478.80 114.00,479.32C114.00,479.88 111.10,479.98 106.75,479.55C102.76,479.16 97.25,478.05 94.50,477.07C91.75,476.10 88.71,474.96 87.75,474.55C86.39,473.96 86.00,474.26 86.00,475.93C86.00,477.10 86.65,479.62 87.44,481.51C88.23,483.41 91.03,487.26 93.66,490.06C96.28,492.87 100.29,496.26 102.57,497.59C104.85,498.93 110.04,501.16 114.11,502.55C118.17,503.93 126.90,506.15 133.50,507.48C140.10,508.80 151.57,510.57 159.00,511.41C166.43,512.25 181.05,513.41 191.50,514.00C201.95,514.58 219.28,515.74 230.00,516.58C244.04,517.68 250.40,518.59 252.70,519.81C254.45,520.74 259.40,524.36 263.70,527.85C267.99,531.35 275.53,536.52 280.47,539.35C285.81,542.42 290.30,545.79 291.58,547.70C292.76,549.46 294.49,553.92 295.42,557.61C296.80,563.12 296.87,564.55 295.80,565.60C294.79,566.59 292.26,566.68 284.50,565.98C279.00,565.48 271.55,565.06 267.95,565.04C261.89,565.00 260.91,565.32 254.95,569.25C248.50,573.50 248.50,573.50 228.00,573.26C215.43,573.11 204.13,572.44 198.80,571.52C194.01,570.69 187.65,568.94 184.66,567.61C181.67,566.29 174.42,562.19 168.55,558.51C162.67,554.82 156.27,551.36 154.31,550.82C151.97,550.18 150.42,550.18 149.77,550.83C149.11,551.49 151.44,554.99 156.66,561.16C160.99,566.30 165.20,571.34 166.00,572.37C167.40,574.18 167.17,574.22 159.13,573.51C151.02,572.79 150.84,572.83 151.88,574.77C152.46,575.86 154.64,577.44 156.72,578.27C158.80,579.10 164.78,580.71 170.00,581.84C175.22,582.97 186.03,584.84 194.00,586.00C201.97,587.16 210.30,588.51 212.50,589.00C214.70,589.50 220.94,591.61 226.38,593.70C232.21,595.94 237.53,598.73 239.38,600.50C242.50,603.50 242.50,603.50 238.82,603.81C236.80,603.97 231.68,603.40 227.44,602.52C223.21,601.64 219.58,601.09 219.39,601.28C219.19,601.47 219.57,603.05 220.22,604.78C220.88,606.51 221.08,608.25 220.68,608.66C220.27,609.06 217.34,608.85 214.16,608.19C210.98,607.54 201.09,607.00 192.19,607.00C183.29,607.00 176.02,607.34 176.03,607.75C176.05,608.16 179.54,610.80 183.78,613.62C188.03,616.43 194.76,620.61 198.75,622.91C202.74,625.21 206.00,627.52 206.00,628.04C206.00,628.57 203.89,629.00 201.30,629.00C198.72,629.00 191.41,628.50 185.05,627.89C178.70,627.28 172.15,626.22 170.50,625.54C168.85,624.87 163.00,620.59 157.50,616.04C152.00,611.48 143.30,603.65 138.17,598.63C133.04,593.61 125.35,585.45 121.08,580.50C116.81,575.55 110.12,567.17 106.21,561.89C102.30,556.60 95.91,547.38 92.00,541.39C88.10,535.40 81.60,523.98 77.57,516.00C73.53,508.02 68.19,496.32 65.71,490.00C63.22,483.68 59.55,473.10 57.55,466.50C55.56,459.90 52.79,448.43 51.40,441.00C49.85,432.67 48.65,421.85 48.29,412.75C47.70,398.00 47.70,398.00 53.17,392.75C56.18,389.86 61.13,385.15 64.18,382.28C69.19,377.55 69.78,376.55 70.35,371.78C70.70,368.87 70.99,364.02 71.00,361.00C71.01,357.98 71.69,350.10 72.50,343.50C73.32,336.90 74.94,326.81 76.10,321.07C77.25,315.34 79.49,306.03 81.08,300.39C82.66,294.75 85.73,285.49 87.90,279.82C90.07,274.14 94.63,263.71 98.03,256.63C102.38,247.56 103.87,243.54 103.03,243.02C102.25,242.54 102.09,240.98 102.54,238.40C102.92,236.25 104.07,231.36 105.11,227.52C106.15,223.68 107.00,219.52 107.00,218.27C107.00,217.02 106.65,216.00 106.21,216.00C105.78,216.00 103.58,218.81 101.33,222.25C99.07,225.69 94.52,233.90 91.21,240.50C87.89,247.10 83.61,256.32 81.69,261.00C79.77,265.68 75.41,278.25 72.00,288.95C65.79,308.39 65.79,308.39 59.72,314.72C56.38,318.20 53.27,320.67 52.81,320.21C52.35,319.75 52.87,314.09 53.98,307.63C55.08,301.18 56.92,292.21 58.06,287.70C59.20,283.19 61.28,275.68 62.68,271.00C64.08,266.32 67.25,257.55 69.73,251.50C72.21,245.45 76.41,236.16 79.08,230.85C81.74,225.54 86.26,217.22 89.11,212.35C91.97,207.48 97.85,198.26 102.17,191.86C106.49,185.45 113.21,176.23 117.11,171.36C121.00,166.49 128.98,157.36 134.84,151.07C140.70,144.78 150.68,135.10 157.00,129.55C163.32,124.00 172.20,116.65 176.71,113.21C181.23,109.78 190.45,103.43 197.21,99.11C203.97,94.79 216.70,87.65 225.50,83.25C234.30,78.85 248.93,72.28 258.00,68.65C267.07,65.03 281.70,60.01 290.50,57.49C299.30,54.98 313.02,51.62 321.00,50.01C328.98,48.41 341.57,46.36 349.00,45.45C356.43,44.55 373.52,43.58 387.00,43.29C400.48,43.00 422.11,43.26 435.08,43.87C452.03,44.65 462.58,45.68 472.58,47.50C480.24,48.90 492.23,51.59 499.23,53.48C506.23,55.37 516.58,58.74 522.23,60.97C527.88,63.19 534.94,66.25 537.92,67.76C540.90,69.27 543.53,71.07 543.76,71.77C543.99,72.46 542.79,74.33 541.09,75.92C539.39,77.50 538.00,79.03 538.00,79.31C538.00,79.59 543.51,82.82 550.25,86.50C556.99,90.17 568.35,97.03 575.50,101.73C582.65,106.43 593.90,114.57 600.50,119.81C607.10,125.05 619.27,136.12 627.55,144.42C635.83,152.71 646.54,164.44 651.34,170.48C656.15,176.53 665.93,189.69 673.09,199.73C680.24,209.78 686.28,218.00 686.50,218.00C686.73,218.00 686.30,216.28 685.56,214.18C684.82,212.08 683.02,208.00 681.56,205.12C680.10,202.24 677.19,197.10 675.08,193.69C672.98,190.29 668.73,183.51 665.64,178.63C662.56,173.74 660.28,169.36 660.58,168.88C660.87,168.39 661.49,168.00 661.95,168.00C662.41,168.00 664.96,169.80 667.62,172.00C670.29,174.20 673.03,176.00 673.73,176.00C674.43,176.00 675.00,175.80 675.00,175.55C675.00,175.30 674.46,173.84 673.79,172.30C673.12,170.76 670.82,166.86 668.67,163.62C666.52,160.39 660.82,153.19 656.00,147.62C651.19,142.06 641.91,132.32 635.38,126.00C628.84,119.67 618.77,110.71 613.00,106.07C607.23,101.43 596.88,93.94 590.00,89.42C583.12,84.89 572.79,78.63 567.03,75.50C561.28,72.37 549.13,66.74 540.03,62.99C530.94,59.25 516.52,53.72 508.00,50.70C499.48,47.69 487.55,43.84 481.50,42.15C475.45,40.45 465.25,37.95 458.83,36.57C452.41,35.19 440.92,33.16 433.31,32.05C425.70,30.93 411.83,29.55 402.48,28.97C393.14,28.39 379.43,28.19 372.00,28.51C364.57,28.84 352.20,29.77 344.50,30.59C336.80,31.40 325.46,32.97 319.30,34.07C313.15,35.17 301.78,37.62 294.05,39.52C286.32,41.42 274.02,44.97 266.71,47.41C259.40,49.85 248.04,54.18 241.46,57.04C234.88,59.89 223.83,65.10 216.91,68.61C209.98,72.12 197.61,79.41 189.41,84.83C181.21,90.24 168.65,99.32 161.50,105.01C154.35,110.70 142.03,121.69 134.13,129.43C126.23,137.17 115.08,149.35 109.35,156.50C103.62,163.65 94.98,175.35 90.14,182.50C85.30,189.65 78.14,201.12 74.24,208.00C70.34,214.88 64.70,226.12 61.71,233.00C58.73,239.88 54.66,249.87 52.66,255.22C50.67,260.56 47.48,271.14 45.58,278.72C43.68,286.30 40.97,298.35 39.57,305.50C38.16,312.65 36.11,326.15 35.01,335.50C33.91,344.85 32.73,362.62 32.38,375.00C31.99,388.84 32.18,403.08 32.88,412.00C33.51,419.98 34.96,432.12 36.10,439.00C37.24,445.88 39.69,457.35 41.53,464.50C43.38,471.65 46.52,482.23 48.52,488.00C50.52,493.77 55.24,504.91 59.01,512.75C62.78,520.59 68.89,532.06 72.58,538.25C76.27,544.44 81.90,553.33 85.09,558.00C88.28,562.67 94.63,571.03 99.19,576.57C103.76,582.11 111.78,591.26 117.00,596.90C122.22,602.55 131.23,611.33 137.01,616.42C142.79,621.51 151.92,629.12 157.30,633.32C162.67,637.52 175.27,646.51 185.29,653.30C195.30,660.09 208.38,668.47 214.36,671.93C220.33,675.39 229.55,680.23 234.86,682.69C240.16,685.16 246.30,687.99 248.50,688.99C250.70,689.99 256.32,692.38 261.00,694.30C265.68,696.22 275.11,699.67 281.96,701.97C288.82,704.27 302.54,708.13 312.46,710.54C322.38,712.96 336.35,715.82 343.50,716.92C350.65,718.02 362.35,719.39 369.50,719.97C376.65,720.55 384.75,721.16 387.50,721.33C390.25,721.50 394.98,721.71 398.00,721.81zM392.78,695.60C378.33,695.74 362.23,695.43 357.00,694.91C351.77,694.39 342.10,693.08 335.50,692.01C328.90,690.93 316.49,688.29 307.93,686.12C299.36,683.96 286.09,679.85 278.43,677.00C270.77,674.14 258.38,668.67 250.90,664.85C242.77,660.70 235.93,656.46 233.90,654.33C230.50,650.76 230.50,650.76 235.00,651.37C237.47,651.71 251.20,653.10 265.50,654.47C279.80,655.83 300.18,657.63 310.79,658.46C321.40,659.29 338.95,660.22 349.79,660.53C360.63,660.84 371.36,661.32 373.64,661.59C376.88,661.98 381.54,664.70 395.14,674.16C404.69,680.80 414.45,687.81 416.82,689.74C419.83,692.18 420.83,693.57 420.10,694.30C419.44,694.96 409.36,695.44 392.78,695.60zM109.72,682.96C106.56,682.93 103.05,682.15 100.84,680.98C98.83,679.91 96.23,677.84 95.07,676.36C93.91,674.89 92.29,671.37 91.47,668.54C89.97,663.39 89.97,663.39 82.38,661.16C75.87,659.24 74.03,658.16 69.38,653.51C66.01,650.14 62.69,645.42 60.57,641.00C58.69,637.09 56.60,630.75 55.91,626.90C54.97,621.60 54.93,618.18 55.75,612.88C56.34,609.02 57.99,603.53 59.40,600.68C60.81,597.83 64.01,592.93 66.52,589.80C69.56,586.01 71.59,584.29 72.58,584.67C73.41,584.99 78.31,590.48 83.49,596.87C88.66,603.27 99.20,615.45 106.92,623.93C114.63,632.42 121.63,640.81 122.47,642.57C123.30,644.34 124.48,649.32 125.09,653.64C125.69,657.96 125.89,663.71 125.54,666.41C125.18,669.10 124.26,672.53 123.50,674.01C122.73,675.49 120.49,678.12 118.52,679.85C115.45,682.54 114.17,682.99 109.72,682.96zM573.83,681.00C574.84,681.00 580.13,678.72 585.58,675.93C591.04,673.14 601.12,667.09 608.00,662.49C614.88,657.88 625.06,650.29 630.63,645.60C636.20,640.91 645.53,632.28 651.38,626.41C657.22,620.55 665.39,611.64 669.53,606.62C673.66,601.61 679.94,593.45 683.48,588.50C687.02,583.55 692.14,575.23 694.85,570.00C697.56,564.77 700.12,559.38 700.54,558.01C701.23,555.70 701.16,555.62 699.49,557.01C698.49,557.83 693.18,564.58 687.68,572.00C682.17,579.42 672.17,592.02 665.45,600.00C658.73,607.98 647.21,620.37 639.86,627.55C632.50,634.73 620.73,645.20 613.69,650.81C606.66,656.42 594.40,665.29 586.45,670.51C578.50,675.74 572.00,680.24 572.00,680.51C572.00,680.78 572.83,681.00 573.83,681.00zM90.99,652.00C91.88,652.00 93.14,651.46 93.80,650.80C94.46,650.14 95.00,648.89 95.00,648.01C95.00,647.14 93.69,644.87 92.10,642.96C90.50,641.06 88.89,639.80 88.51,640.17C88.13,640.54 87.39,642.78 86.86,645.15C86.04,648.80 86.15,649.64 87.64,650.72C88.60,651.43 90.11,652.00 90.99,652.00zM373.50,645.80C363.60,645.70 352.57,645.48 349.00,645.31C345.43,645.14 335.75,644.32 327.50,643.48C319.25,642.65 311.49,641.70 310.25,641.37C309.01,641.04 308.00,640.40 308.00,639.96C308.00,639.51 311.45,638.59 315.67,637.91C320.88,637.07 322.72,636.44 321.42,635.96C320.36,635.57 310.94,634.73 300.50,634.09C290.05,633.45 277.56,632.23 272.74,631.36C267.93,630.50 263.74,629.39 263.44,628.90C263.12,628.38 272.73,627.99 286.19,627.99C299.01,627.98 318.27,627.53 329.00,626.99C339.73,626.46 357.50,625.08 368.50,623.95C379.50,622.81 395.93,620.77 405.00,619.41C414.07,618.05 426.00,616.03 431.50,614.92C437.00,613.81 446.00,611.73 451.50,610.30C457.00,608.86 462.93,607.09 464.68,606.36C466.43,605.63 468.19,604.51 468.58,603.87C469.11,603.01 467.51,602.88 462.40,603.36C458.60,603.72 448.30,604.45 439.50,604.98C430.70,605.51 407.30,606.43 387.50,607.03C367.70,607.63 347.33,607.82 342.23,607.44C337.14,607.07 332.71,606.33 332.38,605.81C332.06,605.29 331.96,604.71 332.16,604.51C332.35,604.32 338.36,603.41 345.51,602.49C352.65,601.58 364.57,599.28 372.00,597.38C379.43,595.48 389.77,592.61 395.00,591.00C400.23,589.39 407.43,587.41 411.00,586.60C414.57,585.78 422.23,584.63 428.00,584.03C433.77,583.43 445.02,582.03 453.00,580.91C460.98,579.80 474.18,577.77 482.34,576.41C492.18,574.76 498.07,573.29 499.84,572.02C501.30,570.97 505.20,569.65 508.50,569.09C511.80,568.54 523.05,567.37 533.50,566.51C543.95,565.64 557.90,564.26 564.50,563.44C571.10,562.61 578.65,561.67 581.27,561.33C585.26,560.82 585.95,560.96 585.47,562.22C585.15,563.04 579.37,568.74 572.62,574.89C565.88,581.03 555.29,589.80 549.10,594.39C542.90,598.97 532.59,605.67 526.17,609.29C519.75,612.91 511.27,617.47 507.32,619.44C503.37,621.41 495.03,625.01 488.80,627.45C482.57,629.88 472.75,633.23 466.98,634.89C461.22,636.54 451.77,638.80 446.00,639.90C440.23,641.01 432.12,642.38 428.00,642.95C423.88,643.51 413.98,644.43 406.00,644.98C398.02,645.53 383.40,645.90 373.50,645.80zM362.13,573.93C357.93,573.90 352.42,573.30 349.88,572.62C347.12,571.88 342.61,569.27 338.72,566.17C335.13,563.32 330.58,560.31 328.62,559.49C326.55,558.62 321.94,558.00 317.59,558.00C313.34,558.00 309.83,558.46 309.45,559.08C309.03,559.76 307.92,559.33 306.38,557.88C305.05,556.64 303.30,553.37 302.48,550.63C301.67,547.88 301.00,544.37 301.00,542.82C301.00,540.56 301.45,540.00 303.26,540.00C304.50,540.00 311.81,541.83 319.51,544.07C327.20,546.30 338.68,548.90 345.00,549.83C351.32,550.77 357.02,551.86 357.67,552.27C358.31,552.68 359.15,556.37 359.53,560.48C359.93,564.70 360.81,568.43 361.57,569.06C362.30,569.67 363.70,570.01 364.67,569.83C365.64,569.64 367.35,568.08 368.46,566.36C369.58,564.65 371.08,562.40 371.79,561.37C372.88,559.78 373.00,560.36 372.60,565.32C372.34,568.52 371.60,571.78 370.94,572.57C370.09,573.59 367.59,573.98 362.13,573.93zM383.14,573.00C382.48,573.00 381.71,572.40 381.43,571.67C381.14,570.93 381.05,566.58 381.21,561.99C381.50,553.64 381.50,553.64 395.00,550.86C402.43,549.34 412.84,546.72 418.14,545.04C423.44,543.37 428.50,542.00 429.39,542.00C430.30,542.00 431.00,542.82 431.00,543.89C431.00,544.93 428.92,548.10 426.37,550.94C423.82,553.77 418.98,558.04 415.62,560.43C412.25,562.81 406.80,566.11 403.50,567.75C400.20,569.39 394.54,571.25 390.92,571.87C387.30,572.49 383.80,573.00 383.14,573.00zM428.31,570.00C427.65,570.00 426.85,569.57 426.53,569.05C426.20,568.52 427.86,565.39 430.22,562.10C432.57,558.81 436.30,553.16 438.49,549.55C440.69,545.94 443.16,542.79 443.99,542.54C444.82,542.30 459.45,541.16 476.50,540.01C493.55,538.85 521.75,536.80 539.17,535.45C556.59,534.10 572.12,533.05 573.67,533.12C575.39,533.19 575.81,533.41 574.74,533.69C573.77,533.94 573.20,534.51 573.47,534.95C573.74,535.38 571.60,536.64 568.73,537.74C565.85,538.83 559.67,540.90 555.00,542.33C549.42,544.04 543.24,546.99 537.00,550.92C529.66,555.55 525.34,557.49 518.00,559.45C512.77,560.85 507.69,562.00 506.70,562.00C505.19,562.00 505.01,561.44 505.57,558.50C505.94,556.48 505.82,555.00 505.27,555.00C504.74,555.00 501.43,556.87 497.91,559.16C494.38,561.45 489.70,563.87 487.50,564.53C485.30,565.20 478.77,566.26 473.00,566.88C467.23,567.51 455.07,568.46 446.00,569.00C436.93,569.55 428.96,569.99 428.31,570.00zM209.54,557.00C211.27,557.00 214.62,555.98 216.99,554.73C219.48,553.40 222.09,550.99 223.20,548.98C224.68,546.30 225.04,543.98 224.78,538.89C224.52,533.58 223.92,531.59 221.78,528.78C220.31,526.86 217.48,524.51 215.49,523.56C212.90,522.33 210.73,522.04 207.86,522.52C205.50,522.92 202.36,524.50 200.27,526.34C198.31,528.06 196.09,530.92 195.35,532.70C194.61,534.48 194.00,537.80 194.00,540.08C194.00,542.44 194.90,545.84 196.09,547.95C197.24,550.00 200.03,552.87 202.29,554.34C204.55,555.80 207.81,557.00 209.54,557.00zM123.75,527.97C124.44,527.99 125.00,527.10 125.00,526.00C125.00,524.90 123.20,522.20 121.00,520.00C118.80,517.80 116.50,516.00 115.89,516.00C115.26,516.00 115.07,516.73 115.45,517.72C115.81,518.67 117.55,521.36 119.30,523.69C121.06,526.03 123.06,527.95 123.75,527.97zM243.50,509.81C241.85,509.75 239.15,509.53 237.50,509.31C235.85,509.10 232.11,508.46 229.20,507.88C224.61,506.98 223.13,506.04 218.26,500.92C215.16,497.66 212.10,495.00 211.47,495.00C210.83,495.00 209.50,495.90 208.50,497.00C207.50,498.10 206.08,499.00 205.35,499.00C204.61,499.00 204.00,497.99 204.00,496.75C204.00,495.51 204.70,490.45 205.55,485.50C206.40,480.55 207.34,475.66 207.65,474.64C208.10,473.14 210.65,475.29 220.85,485.73C227.81,492.86 236.43,501.21 240.00,504.30C246.25,509.70 246.38,509.91 243.50,509.81zM181.50,499.87C179.85,499.84 174.14,499.00 168.80,498.00C163.47,497.01 156.72,495.42 153.80,494.47C150.89,493.53 148.10,492.38 147.61,491.93C147.11,491.48 147.94,490.80 149.45,490.42C150.96,490.04 156.09,489.96 160.85,490.23C166.76,490.58 170.92,491.41 174.00,492.87C176.47,494.04 179.85,496.11 181.50,497.47C184.50,499.93 184.50,499.93 181.50,499.87zM367.47,486.64C362.05,487.06 359.00,486.93 359.00,486.30C359.00,485.75 361.59,483.28 364.75,480.81C367.91,478.34 375.45,473.03 381.50,469.00C387.55,464.97 397.00,458.53 402.50,454.68C408.00,450.82 417.23,444.21 423.00,439.99C428.77,435.76 436.14,430.80 439.38,428.98C444.91,425.86 446.44,425.53 465.88,423.35C477.22,422.08 487.29,421.03 488.25,421.02C489.21,421.01 490.00,421.46 490.00,422.02C490.00,422.59 484.49,428.70 477.75,435.60C471.01,442.50 464.23,449.07 462.68,450.19C459.87,452.23 459.87,452.23 460.54,448.62C461.07,445.81 460.90,445.00 459.77,445.00C458.97,445.00 454.87,447.36 450.66,450.25C446.44,453.14 437.94,459.38 431.75,464.13C425.56,468.87 418.69,473.67 416.48,474.78C414.27,475.89 408.87,477.98 404.48,479.41C400.09,480.85 391.87,482.92 386.22,484.01C380.56,485.10 372.12,486.29 367.47,486.64zM335.84,482.78C329.00,483.27 329.00,483.27 329.00,468.31C329.00,453.35 329.00,453.35 333.67,446.05C337.21,440.52 338.36,437.74 338.42,434.62C338.50,430.73 338.33,430.48 335.40,430.20C332.45,429.91 332.20,430.18 330.11,435.93C328.90,439.24 326.72,443.37 325.26,445.10C322.86,447.96 322.54,448.07 321.88,446.37C321.47,445.34 321.10,439.55 321.05,433.50C321.01,427.45 320.60,421.91 320.14,421.19C319.59,420.32 317.65,419.98 314.40,420.19C309.50,420.50 309.50,420.50 309.71,425.00C309.83,427.48 311.06,434.00 312.44,439.50C313.82,445.00 315.41,454.16 315.97,459.86C316.54,465.55 317.00,472.19 317.00,474.61C317.00,478.95 316.96,479.00 313.55,479.00C311.66,479.00 306.37,477.83 301.80,476.40C297.24,474.96 289.68,471.82 285.00,469.41C280.32,467.00 272.61,462.10 267.85,458.53C263.10,454.95 256.18,448.76 252.48,444.76C248.78,440.77 243.83,434.80 241.48,431.50C239.13,428.20 234.76,421.00 231.78,415.50C226.77,406.28 226.04,405.41 222.42,404.39C220.27,403.78 209.56,401.84 198.63,400.08C187.63,398.31 174.99,395.62 170.33,394.06C165.70,392.50 159.44,389.58 156.42,387.58C153.40,385.57 150.42,382.82 149.80,381.47C148.96,379.63 148.99,377.99 149.89,374.98C150.55,372.77 150.82,370.52 150.49,369.98C150.15,369.44 149.06,369.00 148.05,369.00C147.04,369.00 145.97,368.37 145.67,367.59C145.38,366.82 145.90,365.49 146.85,364.64C147.79,363.79 153.21,361.25 158.91,358.99C164.60,356.73 174.61,353.52 181.14,351.84C187.68,350.17 193.70,349.05 194.51,349.37C195.71,349.83 196.00,352.19 196.00,361.47C196.00,367.81 195.70,373.00 195.33,373.00C194.96,373.00 193.87,372.29 192.90,371.41C191.40,370.05 190.33,369.99 185.33,370.98C182.12,371.61 176.69,373.03 173.26,374.14C169.83,375.25 166.72,376.64 166.35,377.24C165.98,377.84 166.85,379.34 168.29,380.57C169.73,381.81 173.51,383.80 176.70,385.00C179.89,386.20 191.05,389.14 201.50,391.53C211.95,393.92 226.57,396.79 234.00,397.90C241.43,399.02 255.60,400.59 265.50,401.40C275.40,402.21 291.38,403.10 301.00,403.38C310.62,403.66 320.75,403.57 323.50,403.19C327.77,402.59 326.28,402.30 313.20,401.20C304.78,400.50 293.75,399.22 288.70,398.37C282.82,397.37 277.54,395.76 274.06,393.90C269.80,391.62 262.63,389.78 241.19,385.46C226.11,382.43 212.95,379.51 211.96,378.98C210.70,378.30 209.93,376.29 209.44,372.40C209.06,369.31 208.99,359.74 209.30,351.14C209.67,340.92 210.55,332.55 211.84,327.00C212.92,322.32 215.19,314.53 216.88,309.68C218.56,304.83 222.06,296.84 224.64,291.94C227.23,287.03 232.55,278.74 236.46,273.52C240.37,268.31 247.56,259.71 252.44,254.42C257.32,249.14 265.41,241.54 270.41,237.55C275.41,233.56 283.07,227.91 287.44,224.99C291.81,222.07 299.99,217.51 305.61,214.86C311.23,212.21 319.27,208.91 323.48,207.54C327.69,206.16 335.04,204.27 339.82,203.34C345.75,202.17 353.78,201.61 365.16,201.57C374.32,201.53 382.07,201.74 382.37,202.04C382.67,202.34 384.03,209.54 385.39,218.04C386.75,226.54 388.33,236.90 388.90,241.06C389.46,245.21 390.40,253.64 390.98,259.79C391.81,268.59 392.58,271.97 394.63,275.73C397.22,280.50 397.22,280.50 396.70,331.00C396.41,358.77 396.42,383.64 396.72,386.25C397.02,388.86 397.64,391.00 398.11,391.00C398.58,391.00 399.93,389.10 401.12,386.77C402.30,384.44 404.37,379.38 405.70,375.52C407.03,371.66 408.78,365.35 409.58,361.50C410.54,356.83 411.35,342.54 411.99,318.61C412.51,298.87 413.17,282.49 413.45,282.22C413.73,281.94 414.53,282.19 415.23,282.78C415.93,283.36 418.08,286.57 420.01,289.91C421.93,293.25 423.85,295.98 424.27,295.99C424.70,296.00 425.49,294.85 426.02,293.43C426.56,292.02 427.00,288.06 427.00,284.62C427.00,281.18 427.67,276.12 428.48,273.37C429.30,270.63 431.81,265.71 434.07,262.44C436.33,259.17 440.46,254.36 443.26,251.75C446.05,249.14 448.65,247.00 449.04,247.00C449.42,247.00 453.06,250.49 457.13,254.75C461.20,259.01 467.06,266.10 470.15,270.50C473.24,274.90 478.03,282.77 480.79,288.00C483.55,293.23 487.40,301.77 489.33,307.00C491.26,312.23 493.58,320.13 494.48,324.58C495.37,329.02 495.97,335.32 495.81,338.58C495.50,344.50 495.50,344.50 492.67,336.24C491.11,331.70 489.40,328.25 488.88,328.57C488.30,328.93 488.19,335.62 488.60,345.83C489.02,356.19 488.82,367.80 488.08,376.50C487.43,384.20 486.70,391.18 486.47,392.00C486.24,392.82 486.46,394.15 486.96,394.95C487.75,396.21 489.77,396.18 502.65,394.70C511.48,393.69 517.96,392.47 518.75,391.68C519.58,390.84 520.69,384.25 521.72,373.93C523.12,359.98 523.19,355.25 522.19,342.50C521.55,334.25 519.85,322.32 518.42,316.00C517.00,309.68 514.70,301.12 513.32,297.00C511.94,292.88 508.59,284.81 505.89,279.09C503.18,273.36 498.40,264.82 495.27,260.11C492.13,255.40 484.60,246.41 478.53,240.14C472.47,233.87 463.87,225.90 459.43,222.42C454.99,218.95 446.23,213.09 439.97,209.39C433.70,205.70 424.96,201.22 420.54,199.43C416.12,197.65 408.23,195.05 403.00,193.66C397.77,192.26 389.90,190.57 385.50,189.91C380.90,189.21 370.70,188.82 361.50,189.00C352.70,189.17 342.61,189.35 339.09,189.40C335.06,189.46 332.53,189.07 332.29,188.35C332.07,187.70 334.00,186.52 336.70,185.66C339.34,184.82 344.20,183.57 347.50,182.90C350.80,182.22 360.70,181.65 369.50,181.63C382.08,181.59 387.86,182.05 396.52,183.78C402.59,184.99 411.54,187.32 416.41,188.97C421.29,190.62 429.92,194.27 435.59,197.09C442.12,200.33 449.68,205.24 456.20,210.47C461.86,215.01 469.65,221.83 473.50,225.62C477.35,229.41 483.03,235.43 486.13,239.01C489.23,242.58 494.24,248.97 497.27,253.20C500.30,257.44 505.32,265.87 508.42,271.93C511.52,278.00 515.59,286.91 517.45,291.73C519.31,296.55 521.82,304.32 523.02,309.00C524.22,313.68 525.84,321.10 526.61,325.50C527.38,329.90 528.30,341.63 528.65,351.56C529.08,363.67 528.89,372.40 528.08,378.06C527.41,382.70 526.60,387.58 526.28,388.91C525.70,391.31 525.70,391.31 532.90,390.65C536.86,390.28 549.41,388.39 560.80,386.46C572.18,384.52 586.23,381.82 592.00,380.45C597.77,379.08 604.75,377.22 607.50,376.32C610.25,375.42 614.22,373.61 616.33,372.28C618.53,370.90 620.77,368.40 621.61,366.40C622.95,363.19 622.89,362.56 620.83,358.21C619.60,355.62 618.44,353.19 618.23,352.80C618.03,352.42 619.26,352.50 620.95,352.99C622.65,353.47 625.93,354.91 628.23,356.19C630.54,357.46 633.45,360.03 634.71,361.90C635.97,363.77 637.00,365.79 637.00,366.40C636.99,367.00 636.11,368.94 635.04,370.70C633.97,372.46 631.61,374.67 629.80,375.60C628.00,376.54 617.74,379.96 607.01,383.20C596.28,386.44 582.27,390.39 575.88,391.96C569.49,393.54 555.99,396.18 545.88,397.83C535.77,399.48 521.20,401.78 513.50,402.93C505.80,404.09 489.38,406.14 477.00,407.50C464.62,408.85 452.78,410.45 450.68,411.04C448.42,411.69 443.12,415.30 437.68,419.89C432.63,424.16 424.23,430.80 419.00,434.65C413.77,438.50 406.57,443.63 403.00,446.04C399.43,448.46 387.73,455.99 377.00,462.77C366.27,469.56 354.17,476.73 350.09,478.70C344.54,481.39 340.98,482.41 335.84,482.78zM70.05,449.00C70.45,449.00 71.07,448.26 71.42,447.35C71.77,446.44 71.53,441.06 70.90,435.40C69.80,425.62 69.56,424.92 66.12,421.30C62.50,417.50 62.50,417.50 62.16,421.50C61.98,423.70 62.36,428.84 63.01,432.92C63.67,437.01 64.69,441.51 65.29,442.92C65.90,444.34 67.04,446.29 67.85,447.25C68.65,448.21 69.64,449.00 70.05,449.00zM302.97,448.00C303.42,448.00 304.06,447.29 304.39,446.42C304.73,445.55 304.54,440.71 303.98,435.67C303.42,430.63 302.70,425.10 302.39,423.38C301.86,420.47 301.48,420.22 296.66,419.64C293.82,419.30 290.06,419.01 288.31,419.01C286.55,419.00 284.84,419.45 284.50,419.99C284.17,420.54 285.72,424.51 287.96,428.81C290.20,433.12 294.31,439.20 297.10,442.32C299.88,445.44 302.53,448.00 302.97,448.00zM98.87,410.98C97.57,410.96 94.88,410.01 92.90,408.87C90.92,407.72 88.56,405.52 87.65,403.98C86.71,402.39 86.00,399.04 86.00,396.19C86.00,391.43 86.23,390.99 90.89,387.10C93.57,384.84 97.73,382.13 100.11,381.06C102.50,379.99 104.64,379.31 104.87,379.53C105.10,379.76 103.53,382.02 101.39,384.56C99.25,387.10 96.69,390.37 95.70,391.83C94.46,393.67 94.04,395.68 94.36,398.29C94.61,400.37 95.53,403.07 96.40,404.29C97.27,405.50 98.72,407.51 99.62,408.75C101.18,410.91 101.15,411.00 98.87,410.98zM316.00,379.80C318.48,379.86 331.75,379.52 345.50,379.04C359.25,378.56 371.36,377.83 372.41,377.42C374.22,376.70 374.20,376.62 372.09,375.84C370.87,375.39 353.81,372.98 334.18,370.50C314.56,368.02 292.43,365.06 285.00,363.92C275.62,362.48 271.12,361.36 270.25,360.23C269.48,359.24 269.03,355.69 269.08,351.06C269.16,343.50 269.16,343.50 270.91,348.50C272.01,351.61 273.35,353.63 274.46,353.85C276.06,354.16 276.18,353.67 275.57,349.35C275.20,346.68 273.27,338.74 271.29,331.70C268.60,322.13 266.86,317.84 264.41,314.75C262.61,312.47 261.35,310.24 261.62,309.81C261.89,309.37 263.99,309.98 266.29,311.15C268.59,312.32 276.78,317.41 284.49,322.47C292.19,327.52 301.55,333.97 305.27,336.80C309.00,339.63 312.89,342.41 313.92,342.96C315.35,343.72 315.94,343.59 316.40,342.40C316.73,341.54 317.00,337.14 317.00,332.63C317.00,328.12 317.69,313.94 318.53,301.12C319.38,288.30 320.41,276.17 320.83,274.16C321.25,272.15 322.02,270.58 322.54,270.69C323.07,270.79 324.11,273.37 324.85,276.42C326.14,281.67 327.10,282.86 343.47,299.40C352.97,309.00 362.43,318.91 364.49,321.42C366.55,323.94 368.86,326.00 369.62,326.00C370.74,326.00 371.00,322.72 371.00,308.57C371.00,298.98 371.41,290.05 371.91,288.74C372.41,287.42 375.08,283.36 377.84,279.71C381.55,274.81 383.06,271.81 383.59,268.28C383.99,265.65 383.87,256.85 383.33,248.72C382.78,240.55 381.83,233.43 381.22,232.82C380.40,232.00 379.80,232.93 378.94,236.32C378.30,238.86 377.15,241.46 376.39,242.09C375.23,243.05 375.01,242.35 375.05,237.87C375.07,234.92 375.70,227.78 376.44,222.00C377.29,215.35 377.43,211.13 376.83,210.50C376.27,209.92 370.67,209.58 363.42,209.68C355.63,209.79 346.84,210.65 339.97,211.96C333.92,213.12 325.04,215.43 320.24,217.09C315.43,218.75 307.00,222.34 301.50,225.06C296.00,227.79 287.23,233.04 282.00,236.74C276.77,240.44 267.06,248.94 260.42,255.63C252.69,263.41 245.73,271.63 241.09,278.44C237.10,284.30 231.39,294.18 228.40,300.41C225.40,306.63 221.88,315.98 220.56,321.18C219.24,326.38 217.67,334.13 217.08,338.39C216.49,342.66 216.00,349.09 216.00,352.68C216.00,358.50 216.19,359.14 217.75,358.53C218.71,358.15 224.16,356.28 229.86,354.37C235.56,352.45 240.35,351.03 240.51,351.19C240.66,351.36 241.31,356.36 241.94,362.29C242.57,368.22 243.35,373.74 243.65,374.54C243.96,375.34 244.73,376.00 245.36,376.01C245.99,376.01 250.55,376.50 255.50,377.08C260.45,377.67 275.07,378.49 288.00,378.91C300.93,379.34 313.52,379.73 316.00,379.80zM539.82,380.00C539.04,380.00 538.90,377.68 539.35,372.35C539.71,368.14 540.00,358.47 540.00,350.85C540.00,337.00 540.00,337.00 542.95,337.00C544.57,337.00 550.76,337.93 556.70,339.06C562.64,340.19 572.00,342.45 577.50,344.07C583.00,345.70 589.81,348.16 592.64,349.53C595.47,350.91 598.96,352.97 600.41,354.11C601.86,355.25 603.73,357.51 604.57,359.14C605.41,360.77 605.82,362.98 605.48,364.06C605.14,365.14 603.56,366.69 601.98,367.51C600.40,368.33 598.85,369.00 598.55,369.00C598.25,369.00 598.00,367.57 598.00,365.83C598.00,363.40 597.00,361.70 593.71,358.55C591.36,356.29 587.59,353.90 585.35,353.22C583.10,352.55 580.53,352.00 579.62,352.00C578.12,352.00 578.10,352.31 579.49,355.62C580.32,357.61 581.00,360.76 581.00,362.62C581.00,364.64 580.21,366.79 579.04,367.96C577.96,369.04 575.18,370.89 572.85,372.07C570.53,373.26 562.39,375.53 554.78,377.12C547.16,378.70 540.43,380.00 539.82,380.00zM670.75,354.93C670.06,354.89 668.15,353.99 666.50,352.93C664.85,351.87 659.58,349.60 654.79,347.88C646.09,344.76 646.09,344.76 645.61,340.63C645.35,338.36 644.65,331.77 644.05,326.00C643.45,320.23 641.86,310.10 640.52,303.50C639.17,296.90 636.01,284.75 633.49,276.50C629.20,262.46 628.95,261.02 629.57,253.95C629.97,249.31 629.76,244.16 629.02,240.62C628.36,237.44 628.04,234.62 628.31,234.36C628.57,234.09 631.44,237.84 634.68,242.69C637.92,247.53 643.77,258.02 647.68,266.00C651.58,273.98 656.66,285.90 658.96,292.50C661.26,299.10 664.44,309.50 666.02,315.61C667.60,321.72 669.59,332.05 670.45,338.57C671.30,345.08 672.00,351.45 672.00,352.71C672.00,353.97 671.44,354.97 670.75,354.93zM607.08,318.83C607.52,318.03 608.43,313.58 609.10,308.94C609.91,303.32 610.01,298.86 609.41,295.58C608.91,292.88 607.99,290.50 607.37,290.29C606.75,290.08 605.96,291.03 605.62,292.39C605.28,293.75 604.95,297.93 604.89,301.68C604.84,305.43 605.12,311.15 605.53,314.39C606.01,318.22 606.55,319.77 607.08,318.83zM587.85,307.48C588.21,307.13 589.23,304.96 590.11,302.67C591.09,300.15 592.77,297.98 594.36,297.20C595.81,296.48 597.00,295.48 597.00,294.97C597.00,294.46 595.89,293.32 594.53,292.43C593.02,291.44 591.56,289.04 590.77,286.24C590.06,283.72 588.99,281.50 588.40,281.30C587.81,281.10 586.77,283.43 586.09,286.48C585.08,291.02 584.31,292.31 581.86,293.57C580.22,294.42 579.05,295.65 579.27,296.31C579.49,296.96 580.53,297.66 581.58,297.86C582.64,298.05 584.03,298.64 584.67,299.17C585.32,299.69 586.15,301.92 586.52,304.12C586.89,306.33 587.49,307.84 587.85,307.48zM461.75,245.92C461.06,245.88 451.73,241.17 441.00,235.45C427.82,228.42 418.16,224.00 411.16,221.80C402.82,219.18 400.57,218.06 399.55,216.02C398.86,214.64 398.01,212.04 397.67,210.25C397.08,207.15 397.20,207.00 400.13,207.00C401.82,207.00 407.32,208.37 412.35,210.06C417.38,211.74 425.32,215.16 430.00,217.66C434.68,220.16 441.69,224.62 445.59,227.58C449.49,230.54 455.00,235.42 457.84,238.42C460.68,241.42 463.00,244.36 463.00,244.94C463.00,245.52 462.44,245.97 461.75,245.92zM519.87,233.98C520.22,233.98 521.15,233.56 521.94,233.06C523.12,232.31 523.17,231.66 522.18,229.50C521.42,227.84 520.34,226.98 519.25,227.19C518.30,227.37 517.37,228.33 517.18,229.31C516.99,230.29 517.38,231.75 518.04,232.55C518.70,233.35 519.53,233.99 519.87,233.98zM567.68,229.00C565.11,229.00 563.00,228.66 563.00,228.25C563.00,227.84 564.79,225.82 566.97,223.76C569.16,221.71 571.86,218.24 572.97,216.05C574.36,213.34 575.00,210.13 575.00,205.93C575.00,201.44 574.40,198.71 572.80,195.86C571.58,193.69 568.48,190.59 565.81,188.88C563.17,187.18 561.26,185.39 561.56,184.90C561.87,184.40 563.67,184.00 565.57,184.00C567.47,184.00 571.01,184.94 573.45,186.08C575.89,187.23 579.96,190.39 582.51,193.11C585.06,195.84 588.12,200.19 589.31,202.78C590.95,206.36 591.47,209.44 591.49,215.54C591.50,221.67 591.06,224.25 589.67,226.38C587.93,229.04 587.76,229.09 585.94,227.45C584.16,225.83 583.67,225.83 578.20,227.36C574.99,228.26 570.26,229.00 567.68,229.00zM263.28,180.96C264.26,180.98 266.57,180.37 268.40,179.61C270.24,178.84 272.92,176.66 274.37,174.76C275.82,172.86 277.00,170.80 277.00,170.19C277.00,169.57 275.36,170.17 273.36,171.53C271.07,173.09 268.31,174.00 265.92,174.00C263.83,174.00 261.89,173.63 261.61,173.18C261.33,172.73 262.64,171.81 264.50,171.13C266.37,170.46 269.05,168.54 270.45,166.88C272.32,164.66 273.00,162.70 273.00,159.56C273.00,156.26 272.39,154.66 270.36,152.64C268.46,150.73 266.69,150.00 264.01,150.00C261.81,150.00 258.91,150.93 256.90,152.28C254.43,153.93 252.98,156.06 251.60,160.05C250.29,163.82 249.91,166.69 250.37,169.17C250.75,171.17 252.02,174.02 253.19,175.52C254.37,177.01 256.72,178.84 258.42,179.58C260.11,180.32 262.30,180.94 263.28,180.96zM295.88,167.00C296.33,167.00 297.50,166.10 298.50,165.00C300.25,163.07 300.25,162.93 298.50,161.00C297.50,159.90 296.14,159.00 295.46,159.00C294.79,159.00 293.98,159.97 293.67,161.16C293.36,162.35 293.55,164.15 294.09,165.16C294.63,166.17 295.43,167.00 295.88,167.00zM44.58,165.00C44.30,165.00 43.60,164.13 43.04,163.07C42.47,162.00 42.01,158.51 42.02,155.32C42.04,151.76 42.79,147.86 43.96,145.27C45.02,142.94 48.00,138.78 50.58,136.02C53.51,132.88 56.11,131.00 57.51,131.00C58.75,131.00 60.28,131.63 60.91,132.39C61.55,133.16 62.33,136.01 62.65,138.73C63.10,142.47 62.75,144.78 61.21,148.26C60.09,150.79 57.25,154.94 54.89,157.50C52.53,160.06 49.37,162.79 47.85,163.58C46.34,164.36 44.87,165.00 44.58,165.00zM324.00,160.00C324.62,160.00 326.00,159.53 327.07,158.96C328.13,158.40 329.00,157.07 329.00,156.02C329.00,154.98 328.51,153.81 327.90,153.44C327.30,153.07 326.22,153.38 325.51,154.13C324.80,154.88 323.91,156.51 323.54,157.75C323.12,159.16 323.29,160.00 324.00,160.00zM705.40,142.00C705.94,142.00 707.75,141.05 709.44,139.90C711.12,138.74 713.92,135.93 715.65,133.65C717.38,131.37 719.29,127.70 719.89,125.50C720.50,123.30 720.99,118.28 720.99,114.36C721.00,110.01 720.21,104.66 718.99,100.71C717.89,97.13 715.15,91.46 712.92,88.12C710.68,84.77 706.98,80.40 704.68,78.40C702.38,76.40 697.80,73.47 694.50,71.88C689.67,69.56 687.15,69.00 681.57,69.00C676.54,69.00 673.42,69.58 670.24,71.13C667.82,72.30 665.49,74.19 665.07,75.34C664.65,76.49 664.51,78.22 664.76,79.19C665.01,80.16 669.44,84.83 674.60,89.57C679.76,94.30 686.64,101.49 689.90,105.54C693.16,109.59 697.28,115.86 699.06,119.47C701.21,123.83 702.65,128.71 703.36,134.02C703.95,138.41 704.87,142.00 705.40,142.00zM91.62,119.00C91.28,119.00 91.00,118.65 91.00,118.22C91.00,117.79 91.74,116.33 92.64,114.97C93.55,113.61 97.26,109.42 100.89,105.66C104.53,101.90 110.65,96.23 114.50,93.07C118.35,89.91 124.09,85.60 127.27,83.51C130.44,81.41 133.33,80.00 133.70,80.37C134.07,80.73 133.95,81.42 133.43,81.89C132.92,82.36 127.69,86.84 121.81,91.85C115.94,96.85 106.88,105.01 101.69,109.98C96.50,114.94 91.97,119.00 91.62,119.00zM57.23,116.00C56.62,116.00 55.80,115.48 55.40,114.84C55.01,114.21 54.74,112.19 54.81,110.37C54.88,108.55 56.08,104.80 57.48,102.04C58.88,99.29 62.78,93.82 66.15,89.91C69.52,85.99 75.92,79.90 80.38,76.38C84.83,72.86 92.08,68.22 96.49,66.08C100.89,63.93 107.08,61.43 110.24,60.52C113.39,59.61 117.22,59.01 118.74,59.19C121.33,59.49 121.09,59.81 114.60,64.51C110.81,67.25 103.39,72.92 98.10,77.09C92.82,81.27 84.45,88.90 79.50,94.05C74.55,99.21 67.76,106.26 64.42,109.71C61.07,113.17 57.83,116.00 57.23,116.00zM203.65,113.00C205.11,113.00 212.42,109.78 219.90,105.85C227.38,101.92 238.56,95.80 244.75,92.27C250.94,88.73 256.00,85.59 256.00,85.30C256.00,85.01 253.94,85.08 251.43,85.46C248.91,85.84 243.85,87.27 240.18,88.65C236.50,90.02 229.68,93.17 225.00,95.64C220.32,98.10 213.01,102.58 208.75,105.59C204.49,108.60 201.00,111.49 201.00,112.03C201.00,112.56 202.19,113.00 203.65,113.00z" />

</svg>